<?xml version="1.0" encoding="UTF-8" standalone="no"?>
<!DOCTYPE svg PUBLIC "-//W3C//DTD SVG 1.1//EN" "http://www.w3.org/Graphics/SVG/1.1/DTD/svg11.dtd">
<svg width="100%" height="100%" viewBox="0 0 1288767 268892" version="1.1" xmlns="http://www.w3.org/2000/svg" xmlns:xlink="http://www.w3.org/1999/xlink" xml:space="preserve" xmlns:serif="http://www.serif.com/" style="fill-rule:evenodd;clip-rule:evenodd;stroke-linejoin:round;stroke-miterlimit:2;">
    <g transform="matrix(4.16667,0,0,4.16667,0,0)">
        <rect id="Artboard2" x="0" y="0" width="309304" height="64533.3" style="fill:none;"/>
        <g>
            <rect id="Artboard1" x="0" y="0" width="270558" height="64531.2" style="fill:none;"/>
            <g>
                <g>
                    <g>
                        <path d="M69523.8,27934L73893.9,27934L73893.9,27037.1L70565.8,27037.1L70565.8,24922.8L73627.6,24922.8L73627.6,24029.2L70565.8,24029.2L70565.8,21925.1L73853.5,21925.1L73853.5,21028.2L69523.8,21028.2L69523.8,27934L69523.8,27934L69523.8,27934Z" style="fill:rgb(26,153,214);fill-rule:nonzero;"/>
                        <path d="M75153.8,27934L79523.9,27934L79523.9,27037.1L76195.8,27037.1L76195.8,24922.8L79257.5,24922.8L79257.5,24029.2L76195.8,24029.2L76195.8,21925.1L79483.4,21925.1L79483.4,21028.2L75153.8,21028.2L75153.8,27934L75153.8,27934L75153.8,27934Z" style="fill:rgb(26,153,214);fill-rule:nonzero;"/>
                        <path d="M84645.8,22842.4L85650.6,22842.4C85620.3,21736.4 84642.4,20933.9 83239.7,20933.9C81853.8,20933.9 80791.6,21726.3 80791.6,22916.6C80791.6,23877.6 81479.5,24440.7 82588.9,24740.9L83404.9,24963.4C84143.4,25159 84713.2,25401.8 84713.2,26015.5C84713.2,26689.9 84069.2,27135 83182.3,27135C82379.8,27135 81712.2,26777.5 81651.5,26025.6L80606.1,26025.6C80673.6,27276.6 81641.3,28048.8 83189.1,28048.8C84811,28048.8 85745.1,27195.7 85745.1,26025.6C85745.1,24781.3 84635.7,24299.1 83759,24083.3L83084.5,23908C82545,23769.7 81826.8,23516.8 81830.2,22855.9C81830.2,22269.2 82366.3,21834.2 83216,21834.2C84008.5,21834.2 84571.6,22205.1 84645.8,22842.4L84645.8,22842.4Z" style="fill:rgb(26,153,214);fill-rule:nonzero;"/>
                        <path d="M86648.7,21925.2L88800,21925.2L88800,27934.1L89838.6,27934.1L89838.6,21925.2L91993.3,21925.2L91993.3,21028.3L86648.7,21028.3L86648.7,21925.2L86648.7,21925.2Z" style="fill:rgb(26,153,214);fill-rule:nonzero;"/>
                        <rect x="93170.4" y="21028.3" width="1041.95" height="6905.83" style="fill:rgb(26,153,214);"/>
                        <path d="M98245,27934L99286.9,27934L99286.9,25506.2L100703,25506.2C102305,25506.2 103097,24538.4 103097,23263.8C103097,21992.5 102312,21028.1 100707,21028.1L98245,21028.1L98245,27934L98245,27934ZM99286.9,24622.7L99286.9,21921.7L100595,21921.7C101627,21921.7 102049,22481.5 102049,23263.8C102049,24046.1 101627,24622.7 100609,24622.7L99286.9,24622.7L99286.9,24622.7Z" style="fill:rgb(26,153,214);fill-rule:nonzero;"/>
                        <path d="M108755,21028.3L108755,25486.1C108755,26423.5 108108,27097.9 107056,27097.9C106007,27097.9 105356,26423.5 105356,25486.1L105356,21028.3L104314,21028.3L104314,25570.4C104314,27020.3 105400,28048.8 107056,28048.8C108711,28048.8 109800,27020.3 109800,25570.4L109800,21028.3L108755,21028.3Z" style="fill:rgb(26,153,214);fill-rule:nonzero;"/>
                        <path d="M115759,21028.3L115759,25486.1C115759,26423.5 115112,27097.9 114060,27097.9C113011,27097.9 112360,26423.5 112360,25486.1L112360,21028.3L111318,21028.3L111318,25570.4C111318,27020.3 112404,28048.8 114060,28048.8C115715,28048.8 116804,27020.3 116804,25570.4L116804,21028.3L115759,21028.3L115759,21028.3Z" style="fill:rgb(26,153,214);fill-rule:nonzero;"/>
                        <path d="M118322,27934L122692,27934L122692,27037.1L119364,27037.1L119364,24922.8L122426,24922.8L122426,24029.2L119364,24029.2L119364,21925.1L122652,21925.1L122652,21028.2L118322,21028.2L118322,27934L118322,27934L118322,27934Z" style="fill:rgb(26,153,214);fill-rule:nonzero;"/>
                        <path d="M123707,21925.2L125858,21925.2L125858,27934.1L126897,27934.1L126897,21925.2L129052,21925.2L129052,21028.3L123707,21028.3L123707,21925.2L123707,21925.2Z" style="fill:rgb(26,153,214);fill-rule:nonzero;"/>
                        <path d="M130228,27934L134598,27934L134598,27037.1L131270,27037.1L131270,24922.8L134332,24922.8L134332,24029.2L131270,24029.2L131270,21925.1L134558,21925.1L134558,21028.2L130228,21028.2L130228,27934L130228,27934L130228,27934Z" style="fill:rgb(26,153,214);fill-rule:nonzero;"/>
                        <path d="M140628,23209.9L141697,23209.9C141464,21864.5 140314,20933.8 138824,20933.8C137037,20933.8 135732,22279.2 135732,24484.5C135732,26669.6 137000,28028.5 138871,28028.5C140547,28028.5 141744,26929.2 141744,25185.9L141744,24400.2L139030,24400.2L139030,25260.1L140736,25260.1C140712,26372.8 139977,27077.6 138871,27077.6C137654,27077.6 136767,26157 136767,24477.8C136767,22805.3 137661,21884.7 138831,21884.7C139748,21884.7 140368,22390.5 140628,23209.9L140628,23209.9Z" style="fill:rgb(26,153,214);fill-rule:nonzero;"/>
                        <path d="M143433,27934L144067,26106.4L146765,26106.4L147395,27934L148501,27934L146016,21028.2L144812,21028.2L142327,27934L143433,27934L143433,27934ZM144370,25229.7L145389,22282.5L145443,22282.5L146461,25229.7L144370,25229.7L144370,25229.7Z" style="fill:rgb(26,153,214);fill-rule:nonzero;"/>
                        <rect x="152012" y="21028.3" width="1041.95" height="6905.83" style="fill:rgb(26,153,214);"/>
                        <path d="M160145,21028.3L159113,21028.3L159113,26099.8L159049,26099.8L155535,21028.3L154571,21028.3L154571,27934.1L155613,27934.1L155613,22869.4L155677,22869.4L159187,27934.1L160145,27934.1L160145,21028.3L160145,21028.3Z" style="fill:rgb(26,153,214);fill-rule:nonzero;"/>
                        <rect x="161662" y="21028.3" width="1041.95" height="6905.83" style="fill:rgb(26,153,214);"/>
                        <path d="M164222,21028.3L164222,27934.1L165213,27934.1L165213,22933.5L165277,22933.5L167314,27924L168137,27924L170174,22936.8L170238,22936.8L170238,27934.1L171229,27934.1L171229,21028.3L169965,21028.3L167766,26396.5L167685,26396.5L165486,21028.3L164222,21028.3L164222,21028.3Z" style="fill:rgb(26,153,214);fill-rule:nonzero;"/>
                        <path d="M172746,27934L177116,27934L177116,27037.1L173788,27037.1L173788,24922.8L176850,24922.8L176850,24029.2L173788,24029.2L173788,21925.1L177076,21925.1L177076,21028.2L172746,21028.2L172746,27934L172746,27934L172746,27934Z" style="fill:rgb(26,153,214);fill-rule:nonzero;"/>
                        <path d="M182238,22842.4L183243,22842.4C183212,21736.4 182235,20933.9 180832,20933.9C179446,20933.9 178384,21726.3 178384,22916.6C178384,23877.6 179072,24440.7 180181,24740.9L180997,24963.4C181736,25159 182305,25401.8 182305,26015.5C182305,26689.9 181661,27135 180775,27135C179972,27135 179304,26777.5 179244,26025.6L178198,26025.6C178266,27276.6 179234,28048.8 180781,28048.8C182403,28048.8 183337,27195.7 183337,26025.6C183337,24781.3 182228,24299.1 181351,24083.3L180677,23908C180137,23769.7 179419,23516.8 179422,22855.9C179422,22269.2 179959,21834.2 180808,21834.2C181601,21834.2 182164,22205.1 182238,22842.4L182238,22842.4Z" style="fill:rgb(26,153,214);fill-rule:nonzero;"/>
                        <path d="M184241,21925.2L186392,21925.2L186392,27934.1L187431,27934.1L187431,21925.2L189586,21925.2L189586,21028.3L184241,21028.3L184241,21925.2L184241,21925.2Z" style="fill:rgb(26,153,214);fill-rule:nonzero;"/>
                        <path d="M190762,27934L195132,27934L195132,27037.1L191804,27037.1L191804,24922.8L194866,24922.8L194866,24029.2L191804,24029.2L191804,21925.1L195092,21925.1L195092,21028.2L190762,21028.2L190762,27934L190762,27934L190762,27934Z" style="fill:rgb(26,153,214);fill-rule:nonzero;"/>
                        <path d="M199003,27934L200045,27934L200045,25786L200861,24848.6L203093,27934L204348,27934L201552,24137.1L204338,21028.1L203026,21028.1L200129,24326L200045,24326L200045,21028.2L199003,21028.2L199003,27934L199003,27934Z" style="fill:rgb(26,153,214);fill-rule:nonzero;"/>
                        <path d="M210967,24481.2C210967,22272.5 209645,20933.9 207858,20933.9C206064,20933.9 204746,22272.5 204746,24481.2C204746,26686.5 206064,28028.5 207858,28028.5C209645,28028.5 210967,26689.9 210967,24481.2ZM209935,24481.2C209935,26163.8 209045,27077.6 207858,27077.6C206668,27077.6 205781,26163.8 205781,24481.2C205781,22798.6 206668,21884.8 207858,21884.8C209045,21884.8 209935,22798.6 209935,24481.2Z" style="fill:rgb(26,153,214);fill-rule:nonzero;"/>
                        <path d="M214498,27934C216602,27934 217819,26629 217819,24471C217819,22323 216602,21028.2 214569,21028.2L212262,21028.2L212262,27934L214498,27934L214498,27934L214498,27934ZM213304,27023.6L213304,21938.6L214505,21938.6C216015,21938.6 216794,22842.3 216794,24471C216794,26106.4 216015,27023.6 214441,27023.6L213304,27023.6Z" style="fill:rgb(26,153,214);fill-rule:nonzero;"/>
                        <path d="M219354,27934L219988,26106.4L222686,26106.4L223316,27934L224422,27934L221937,21028.2L220733,21028.2L218248,27934L219354,27934L219354,27934ZM220291,25229.7L221310,22282.5L221364,22282.5L222382,25229.7L220291,25229.7L220291,25229.7Z" style="fill:rgb(26,153,214);fill-rule:nonzero;"/>
                    </g>
                </g>
                <g id="EPIKoja-logo--tekstiga-" serif:id="EPIKoja logo (tekstiga)">
                    <path d="M35657.5,0L63163,62542.1L35657.2,22200.1L6776,62869.2L35657.6,0L35657.4,-0.175L35657.5,0L35657.5,0Z" style="fill:rgb(45,44,113);fill-rule:nonzero;"/>
                    <path d="M28881.8,1645.62L56387.3,64188.1L28881.8,23845.2L0,64515.7L28881.8,1645.32L28881.8,1645.62Z" style="fill:rgb(120,200,240);fill-rule:nonzero;"/>
                    <path d="M25063.2,49313.8C25063.2,49313.8 21433,48852.5 20712.2,55140.1C20712.2,55140.1 20235.1,62411.6 25063.2,62738.6L25063.2,60839.2C25063.2,60839.2 22116.3,60904.5 22639.6,55404.1L24604.8,55404.1L24604.8,54356.9L22762.3,54380.8C22762.3,54380.8 23231.1,51367 25064.9,51039.7L25063.2,49313.8L25063.2,49313.8Z" style="fill:rgb(45,44,113);fill-rule:nonzero;"/>
                    <path d="M28308.8,56224.6L28308.8,51815.1C30386.8,51900.2 30386.8,53978.6 30386.8,53978.6C30257.8,56459.3 28308.8,56224.6 28308.8,56224.6L28308.8,56224.6ZM31854,53962.7C31661.8,48933.5 26811.2,49248.3 26811.2,49248.3L26811.2,62738.4L28251.9,62738.4L28251.9,58219.6C31984.8,57826.1 31854,53962.7 31854,53962.7L31854,53962.7L31854,53962.7Z" style="fill:rgb(45,44,113);fill-rule:nonzero;"/>
                    <rect x="33249" y="49315.4" width="1488.28" height="13423.1" style="fill:rgb(45,44,113);"/>
                    <path d="M36292.9,49347.1L37843,49350L37843,54434.1C37843,54434.1 40343.9,54520.7 40428.2,51458.9L40441.5,49261.1L41911.3,49261.1L41916.2,51374.3C41916.2,51374.3 41972.5,54238.9 40231.6,55306.7C40231.6,55306.7 41711,56018.5 41626.4,59612L41626.4,62729.5L40166.4,62738.7L40166.4,60033.1C40166.4,60033.1 40447.2,55821.6 37863.7,56214.5L37863.7,62729.5L36294.1,62733.2L36292.9,49347.1L36292.9,49347.1L36292.9,49347.1Z" style="fill:rgb(45,44,113);fill-rule:nonzero;"/>
                </g>
                <path d="M69523.8,41393.1L73879.3,41393.1L73879.3,40499.1L70562.3,40499.1L70562.3,38392L73613.8,38392L73613.8,37501.4L70562.3,37501.4L70562.3,35404.3L73839,35404.3L73839,34510.3L69523.8,34510.3L69523.8,41393.1Z" style="fill:rgb(26,153,214);fill-rule:nonzero;"/>
                <path d="M78984.2,36318.4L79985.7,36318.4C79955.5,35216.1 78980.8,34416.2 77582.8,34416.2C76201.5,34416.2 75142.9,35206 75142.9,36392.3C75142.9,37350.1 75828.5,37911.4 76934.2,38210.5L77747.5,38432.3C78483.5,38627.2 79051.4,38869.2 79051.4,39480.8C79051.4,40153 78409.5,40596.6 77525.6,40596.6C76725.8,40596.6 76060.4,40240.4 75999.9,39490.9L74958,39490.9C75025.3,40737.8 75989.8,41507.4 77532.4,41507.4C79148.9,41507.4 80079.8,40657.1 80079.8,39490.9C80079.8,38250.8 78974.1,37770.2 78100.3,37555.1L77428.2,37380.4C76890.5,37242.6 76174.6,36990.5 76178,36331.8C76178,35747.1 76712.3,35313.5 77559.3,35313.5C78349,35313.5 78910.3,35683.2 78984.2,36318.4L78984.2,36318.4Z" style="fill:rgb(26,153,214);fill-rule:nonzero;"/>
                <path d="M80980.5,35404.3L83124.6,35404.3L83124.6,41393.1L84159.7,41393.1L84159.7,35404.3L86307.2,35404.3L86307.2,34510.3L80980.5,34510.3L80980.5,35404.3Z" style="fill:rgb(26,153,214);fill-rule:nonzero;"/>
                <path d="M93169.8,37951.7C93169.8,35750.4 91852.4,34416.2 90071.2,34416.2C88283.3,34416.2 86969.3,35750.4 86969.3,37951.7C86969.3,40149.6 88283.3,41487.2 90071.2,41487.2C91852.4,41487.2 93169.8,40153 93169.8,37951.7ZM92141.4,37951.7C92141.4,39628.7 91254.2,40539.5 90071.2,40539.5C88884.9,40539.5 88001,39628.7 88001,37951.7C88001,36274.7 88884.9,35363.9 90071.2,35363.9C91254.2,35363.9 92141.4,36274.7 92141.4,37951.7Z" style="fill:rgb(26,153,214);fill-rule:nonzero;"/>
                <path d="M100016,34510.3L98987.6,34510.3L98987.6,39564.8L98923.8,39564.8L95421.9,34510.3L94460.7,34510.3L94460.7,41393.1L95499.2,41393.1L95499.2,36345.3L95563,36345.3L99061.6,41393.1L100016,41393.1L100016,34510.3L100016,34510.3Z" style="fill:rgb(26,153,214);fill-rule:nonzero;"/>
                <rect x="101528" y="34510.3" width="1038.46" height="6882.77" style="fill:rgb(26,153,214);"/>
                <path d="M104660,41393.1L105292,39571.6L107980,39571.6L108609,41393.1L109711,41393.1L107234,34510.3L106035,34510.3L103558,41393.1L104660,41393.1ZM105594,38697.8L106609,35760.5L106663,35760.5L107678,38697.8L105594,38697.8Z" style="fill:rgb(26,153,214);fill-rule:nonzero;"/>
                <path d="M116258,34510.3L115230,34510.3L115230,39564.8L115166,39564.8L111664,34510.3L110703,34510.3L110703,41393.1L111741,41393.1L111741,36345.3L111805,36345.3L115304,41393.1L116258,41393.1L116258,34510.3L116258,34510.3Z" style="fill:rgb(26,153,214);fill-rule:nonzero;"/>
                <path d="M125994,36748.5C125759,35276.5 124606,34416.2 123151,34416.2C121370,34416.2 120056,35750.4 120056,37951.6C120056,40152.9 121363,41487.1 123151,41487.1C124663,41487.1 125769,40539.4 125994,39178.3L124945,39174.9C124767,40055.5 124028,40539.4 123158,40539.4C121978,40539.4 121087,39635.4 121087,37951.6C121087,36281.4 121975,35363.9 123161,35363.9C124038,35363.9 124774,35857.9 124945,36748.5L125994,36748.5L125994,36748.5Z" style="fill:rgb(26,153,214);fill-rule:nonzero;"/>
                <path d="M127238,41393.1L128276,41393.1L128276,38392L131708,38392L131708,41393.1L132750,41393.1L132750,34510.3L131708,34510.3L131708,37501.4L128276,37501.4L128276,34510.3L127238,34510.3L127238,41393.1Z" style="fill:rgb(26,153,214);fill-rule:nonzero;"/>
                <path d="M134843,41393.1L135475,39571.6L138163,39571.6L138792,41393.1L139894,41393.1L137417,34510.3L136218,34510.3L133741,41393.1L134843,41393.1ZM135777,38697.8L136792,35760.5L136846,35760.5L137861,38697.8L135777,38697.8Z" style="fill:rgb(26,153,214);fill-rule:nonzero;"/>
                <path d="M140885,34510.3L140885,41393.1L141873,41393.1L141873,36409.1L141937,36409.1L143967,41383L144787,41383L146817,36412.5L146881,36412.5L146881,41393.1L147869,41393.1L147869,34510.3L146608,34510.3L144417,39860.6L144336,39860.6L142145,34510.3L140885,34510.3L140885,34510.3Z" style="fill:rgb(26,153,214);fill-rule:nonzero;"/>
                <path d="M149381,41393.1L152019,41393.1C153619,41393.1 154341,40596.6 154341,39541.3C154341,38476 153595,37874.4 152913,37837.5L152913,37770.2C153545,37608.9 154073,37178.7 154073,36318.4C154073,35300.1 153367,34510.3 151902,34510.3L149381,34510.3L149381,41393.1L149381,41393.1ZM150419,40502.5L150419,38297.9L151955,38297.9C152789,38297.9 153310,38835.6 153310,39490.9C153310,40069 152916,40502.5 151918,40502.5L150419,40502.5ZM150419,37487.9L150419,35394.2L151838,35394.2C152661,35394.2 153054,35827.7 153054,36399.1C153054,37064.5 152510,37487.9 151811,37487.9L150419,37487.9Z" style="fill:rgb(26,153,214);fill-rule:nonzero;"/>
                <path d="M155572,41393.1L159928,41393.1L159928,40499.1L156610,40499.1L156610,38392L159662,38392L159662,37501.4L156610,37501.4L156610,35404.3L159887,35404.3L159887,34510.3L155572,34510.3L155572,41393.1Z" style="fill:rgb(26,153,214);fill-rule:nonzero;"/>
                <path d="M161278,41393.1L162316,41393.1L162316,38788.5L163795,38788.5L165193,41393.1L166376,41393.1L164850,38607.1C165694,38294.5 166114,37592.1 166114,36667.9C166114,35400.9 165328,34510.3 163731,34510.3L161278,34510.3L161278,41393.1ZM162316,37894.6L162316,35400.9L163620,35400.9C164645,35400.9 165069,35888.2 165069,36667.9C165069,37444.2 164645,37894.6 163634,37894.6L162316,37894.6L162316,37894.6Z" style="fill:rgb(26,153,214);fill-rule:nonzero;"/>
                <path d="M175867,37951.7C175867,35750.4 174550,34416.2 172768,34416.2C170980,34416.2 169666,35750.4 169666,37951.7C169666,40149.6 170980,41487.2 172768,41487.2C174550,41487.2 175867,40153 175867,37951.7ZM174839,37951.7C174839,39628.7 173951,40539.5 172768,40539.5C171582,40539.5 170698,39628.7 170698,37951.7C170698,36274.7 171582,35363.9 172768,35363.9C173951,35363.9 174839,36274.7 174839,37951.7Z" style="fill:rgb(26,153,214);fill-rule:nonzero;"/>
                <path d="M177158,41393.1L178196,41393.1L178196,38392L181120,38392L181120,37501.4L178196,37501.4L178196,35404.3L181426,35404.3L181426,34510.3L177158,34510.3L177158,41393.1L177158,41393.1Z" style="fill:rgb(26,153,214);fill-rule:nonzero;"/>
                <path d="M185210,41393.1L186248,41393.1L186248,38973.4L187660,38973.4C189256,38973.4 190046,38008.9 190046,36738.5C190046,35471.5 189263,34510.3 187663,34510.3L185210,34510.3L185210,41393.1L185210,41393.1ZM186248,38092.9L186248,35400.9L187552,35400.9C188581,35400.9 189001,35958.8 189001,36738.5C189001,37518.2 188581,38092.9 187566,38092.9L186248,38092.9Z" style="fill:rgb(26,153,214);fill-rule:nonzero;"/>
                <path d="M191259,41393.1L195614,41393.1L195614,40499.1L192297,40499.1L192297,38392L195349,38392L195349,37501.4L192297,37501.4L192297,35404.3L195574,35404.3L195574,34510.3L191259,34510.3L191259,41393.1Z" style="fill:rgb(26,153,214);fill-rule:nonzero;"/>
                <path d="M202945,37951.7C202945,35750.4 201628,34416.2 199846,34416.2C198058,34416.2 196744,35750.4 196744,37951.7C196744,40149.6 198058,41487.2 199846,41487.2C201628,41487.2 202945,40153 202945,37951.7ZM201917,37951.7C201917,39628.7 201029,40539.5 199846,40539.5C198660,40539.5 197776,39628.7 197776,37951.7C197776,36274.7 198660,35363.9 199846,35363.9C201029,35363.9 201917,36274.7 201917,37951.7Z" style="fill:rgb(26,153,214);fill-rule:nonzero;"/>
                <path d="M204235,41393.1L205273,41393.1L205273,38973.4L206685,38973.4C208281,38973.4 209071,38008.9 209071,36738.5C209071,35471.5 208288,34510.3 206688,34510.3L204235,34510.3L204235,41393.1L204235,41393.1ZM205273,38092.9L205273,35400.9L206577,35400.9C207606,35400.9 208026,35958.8 208026,36738.5C208026,37518.2 207606,38092.9 206591,38092.9L205273,38092.9Z" style="fill:rgb(26,153,214);fill-rule:nonzero;"/>
                <path d="M210284,41393.1L214441,41393.1L214441,40499.1L211322,40499.1L211322,34510.3L210284,34510.3L210284,41393.1L210284,41393.1Z" style="fill:rgb(26,153,214);fill-rule:nonzero;"/>
                <path d="M215625,41393.1L219980,41393.1L219980,40499.1L216663,40499.1L216663,38392L219715,38392L219715,37501.4L216663,37501.4L216663,35404.3L219940,35404.3L219940,34510.3L215625,34510.3L215625,41393.1Z" style="fill:rgb(26,153,214);fill-rule:nonzero;"/>
                <path d="M225186,41393.1L226235,41393.1L227683,36237.8L227737,36237.8L229185,41393.1L230230,41393.1L232143,34510.3L231047,34510.3L229710,39843.8L229646,39843.8L228251,34510.3L227169,34510.3L225774,39840.4L225710,39840.4L224369,34510.3L223277,34510.3L225186,41393.1Z" style="fill:rgb(26,153,214);fill-rule:nonzero;"/>
                <rect x="233094" y="34510.3" width="1038.46" height="6882.77" style="fill:rgb(26,153,214);"/>
                <path d="M235305,35404.3L237449,35404.3L237449,41393.1L238484,41393.1L238484,35404.3L240632,35404.3L240632,34510.3L235305,34510.3L235305,35404.3Z" style="fill:rgb(26,153,214);fill-rule:nonzero;"/>
                <path d="M241805,41393.1L242843,41393.1L242843,38392L246275,38392L246275,41393.1L247317,41393.1L247317,34510.3L246275,34510.3L246275,37501.4L242843,37501.4L242843,34510.3L241805,34510.3L241805,41393.1Z" style="fill:rgb(26,153,214);fill-rule:nonzero;"/>
                <path d="M253564,41393.1C255661,41393.1 256874,40092.5 256874,37941.6C256874,35800.8 255661,34510.3 253635,34510.3L251336,34510.3L251336,41393.1L253564,41393.1ZM252374,40485.7L252374,35417.7L253571,35417.7C255076,35417.7 255853,36318.4 255853,37941.6C255853,39571.6 255076,40485.7 253507,40485.7L252374,40485.7L252374,40485.7Z" style="fill:rgb(26,153,214);fill-rule:nonzero;"/>
                <rect x="258165" y="34510.3" width="1038.46" height="6882.77" style="fill:rgb(26,153,214);"/>
                <path d="M264469,36318.4L265470,36318.4C265440,35216.1 264466,34416.2 263068,34416.2C261686,34416.2 260628,35206 260628,36392.3C260628,37350.1 261313,37911.4 262419,38210.5L263232,38432.3C263968,38627.2 264536,38869.2 264536,39480.8C264536,40153 263894,40596.6 263010,40596.6C262211,40596.6 261545,40240.4 261485,39490.9L260443,39490.9C260510,40737.8 261475,41507.4 263017,41507.4C264634,41507.4 265565,40657.1 265565,39490.9C265565,38250.8 264459,37770.2 263585,37555.1L262913,37380.4C262375,37242.6 261659,36990.5 261663,36331.8C261663,35747.1 262197,35313.5 263044,35313.5C263834,35313.5 264395,35683.2 264469,36318.4L264469,36318.4Z" style="fill:rgb(26,153,214);fill-rule:nonzero;"/>
                <path d="M267333,41393.1L267965,39571.6L270653,39571.6L271282,41393.1L272384,41393.1L269907,34510.3L268708,34510.3L266231,41393.1L267333,41393.1ZM268267,38697.8L269282,35760.5L269336,35760.5L270351,38697.8L268267,38697.8Z" style="fill:rgb(26,153,214);fill-rule:nonzero;"/>
                <path d="M273375,41393.1L276013,41393.1C277613,41393.1 278335,40596.6 278335,39541.3C278335,38476 277589,37874.4 276907,37837.5L276907,37770.2C277539,37608.9 278067,37178.7 278067,36318.4C278067,35300.1 277361,34510.3 275896,34510.3L273375,34510.3L273375,41393.1L273375,41393.1ZM274413,40502.5L274413,38297.9L275949,38297.9C276783,38297.9 277304,38835.6 277304,39490.9C277304,40069 276910,40502.5 275912,40502.5L274413,40502.5ZM274413,37487.9L274413,35394.2L275832,35394.2C276655,35394.2 277048,35827.7 277048,36399.1C277048,37064.5 276504,37487.9 275805,37487.9L274413,37487.9Z" style="fill:rgb(26,153,214);fill-rule:nonzero;"/>
                <rect x="279566" y="34510.3" width="1038.46" height="6882.77" style="fill:rgb(26,153,214);"/>
                <path d="M282117,41393.1L286274,41393.1L286274,40499.1L283155,40499.1L283155,34510.3L282117,34510.3L282117,41393.1L282117,41393.1Z" style="fill:rgb(26,153,214);fill-rule:nonzero;"/>
                <rect x="287457" y="34510.3" width="1038.46" height="6882.77" style="fill:rgb(26,153,214);"/>
                <path d="M289668,35404.3L291812,35404.3L291812,41393.1L292847,41393.1L292847,35404.3L294995,35404.3L294995,34510.3L289668,34510.3L289668,35404.3Z" style="fill:rgb(26,153,214);fill-rule:nonzero;"/>
                <rect x="296168" y="34510.3" width="1038.46" height="6882.77" style="fill:rgb(26,153,214);"/>
                <path d="M298719,41393.1L303074,41393.1L303074,40499.1L299757,40499.1L299757,38392L302809,38392L302809,37501.4L299757,37501.4L299757,35404.3L303034,35404.3L303034,34510.3L298719,34510.3L298719,41393.1Z" style="fill:rgb(26,153,214);fill-rule:nonzero;"/>
                <path d="M308179,36318.4L309180,36318.4C309150,35216.1 308176,34416.2 306778,34416.2C305396,34416.2 304338,35206 304338,36392.3C304338,37350.1 305023,37911.4 306129,38210.5L306942,38432.3C307678,38627.2 308246,38869.2 308246,39480.8C308246,40153 307604,40596.6 306720,40596.6C305921,40596.6 305255,40240.4 305195,39490.9L304153,39490.9C304220,40737.8 305185,41507.4 306727,41507.4C308344,41507.4 309275,40657.1 309275,39490.9C309275,38250.8 308169,37770.2 307295,37555.1L306623,37380.4C306085,37242.6 305369,36990.5 305373,36331.8C305373,35747.1 305907,35313.5 306754,35313.5C307544,35313.5 308105,35683.2 308179,36318.4L308179,36318.4Z" style="fill:rgb(26,153,214);fill-rule:nonzero;"/>
            </g>
        </g>
    </g>
</svg>
